<svg width="914" height="400" fill="none" xmlns="http://www.w3.org/2000/svg">
  <path fill="#fff" d="M0 0h914v400H0z"/>
  <path d="M344.817 204.221c0 2.625-.61 4.634-1.832 6.029-1.212 1.395-2.971 2.092-5.277 2.092-1.03 0-1.982-.178-2.857-.533v-4.143a4.102 4.102 0 002.543.861c2.014 0 3.021-1.494 3.021-4.484v-11.648h4.402v11.826zm8.149 7.779h-4.416v-19.605h4.416V212zm20.358 0h-5.072l-3.049-5.045a16.654 16.654 0 00-.656-1.025 5.098 5.098 0 00-.643-.766 2.205 2.205 0 00-.67-.492 1.594 1.594 0 00-.751-.178h-1.19V212h-4.416v-19.605h7c4.758 0 7.137 1.777 7.137 5.332a5.57 5.57 0 01-.315 1.9 5.291 5.291 0 01-.888 1.559 5.621 5.621 0 01-1.395 1.203 7.063 7.063 0 01-1.805.793v.054c.292.091.575.242.848.452.274.2.538.437.793.71.255.274.497.57.725.889.237.31.451.615.642.916l3.705 5.797zm-12.031-16.297v5.455h1.914c.948 0 1.709-.273 2.283-.82.584-.556.875-1.244.875-2.065 0-1.713-1.025-2.57-3.076-2.57h-1.996zM391.85 212h-4.812l-1.395-4.361h-6.972L377.29 212h-4.785l7.136-19.605h5.237L391.85 212zm-7.218-7.752l-2.106-6.59c-.155-.492-.264-1.08-.328-1.763h-.109a7.53 7.53 0 01-.342 1.709l-2.133 6.644h5.018z" fill="#333"/>
  <path d="M411.894 212l-2.953-5.619a11.3 11.3 0 00-.847-1.395 4.193 4.193 0 00-.848-.888 2.639 2.639 0 00-.944-.479c-.328-.1-.697-.15-1.107-.15h-2.16V212h-1.818v-19.605h5.646c.738 0 1.449.109 2.133.328a5.666 5.666 0 011.846.97c.537.429.966.967 1.285 1.614.328.647.492 1.399.492 2.255a5.62 5.62 0 01-.315 1.915 4.908 4.908 0 01-.902 1.558c-.383.447-.852.83-1.408 1.149a6.765 6.765 0 01-1.859.697v.055c.264.109.505.25.724.423.219.174.429.383.629.629.21.246.415.529.615.848.201.319.41.684.629 1.094l3.295 6.07h-2.133zm-8.859-17.938v7.752h3.254a5.42 5.42 0 001.805-.287 3.932 3.932 0 001.394-.82 3.56 3.56 0 00.902-1.285c.219-.501.329-1.067.329-1.695 0-1.14-.37-2.033-1.108-2.68-.729-.656-1.786-.985-3.172-.985h-3.404zm13.536 11.252c.009.857.123 1.627.341 2.311.219.684.534 1.262.944 1.736.41.474.907.839 1.49 1.094.592.246 1.258.369 1.996.369 1.577 0 3.067-.551 4.471-1.654v1.723c-1.34.957-2.962 1.435-4.867 1.435-.939 0-1.791-.164-2.557-.492a5.33 5.33 0 01-1.955-1.422c-.538-.629-.953-1.399-1.244-2.31-.292-.912-.438-1.951-.438-3.118 0-1.048.16-2.019.479-2.912.319-.893.761-1.663 1.326-2.31a5.989 5.989 0 012.01-1.532 5.781 5.781 0 012.543-.56c.902 0 1.7.159 2.392.478a4.58 4.58 0 011.737 1.34c.474.584.834 1.295 1.08 2.133.246.839.369 1.777.369 2.816v.875h-10.117zm8.312-1.531c-.027-1.458-.374-2.588-1.039-3.39-.665-.803-1.59-1.204-2.775-1.204-.593 0-1.144.105-1.655.315-.501.21-.943.515-1.326.916a4.886 4.886 0 00-.957 1.449 7.341 7.341 0 00-.519 1.914h8.271zm5.538-9.324c-.337 0-.629-.119-.875-.355a1.2 1.2 0 01-.369-.903c0-.355.123-.647.369-.875.246-.237.538-.355.875-.355.173 0 .337.032.492.095.155.055.287.137.396.246.119.11.21.242.274.397.073.146.109.31.109.492a1.25 1.25 0 01-.369.903 1.367 1.367 0 01-.41.259c-.146.064-.31.096-.492.096zM429.559 212v-14h1.75v14h-1.75zm15.149 0v-8.066c0-3.163-1.148-4.745-3.445-4.745-.611 0-1.176.123-1.695.37-.52.237-.971.569-1.354.998-.373.428-.67.938-.888 1.531a5.57 5.57 0 00-.315 1.9V212h-1.75v-14h1.75v2.434h.055c1.039-1.842 2.602-2.762 4.689-2.762 1.532 0 2.698.497 3.5 1.49.802.994 1.203 2.429 1.203 4.307V212h-1.75zm15.231 0v-2.461h-.054a5.014 5.014 0 01-1.996 2.065c-.857.483-1.832.724-2.926.724-.875 0-1.673-.159-2.393-.478a5.219 5.219 0 01-1.832-1.409c-.51-.61-.907-1.349-1.189-2.214-.274-.866-.41-1.846-.41-2.94 0-1.13.15-2.16.451-3.09.31-.939.743-1.741 1.299-2.406a5.816 5.816 0 012.023-1.559c.793-.373 1.673-.56 2.639-.56 2.014 0 3.459.807 4.334 2.42h.054v-8.819h1.75V212h-1.75zm0-8.449c0-.611-.104-1.181-.314-1.709a4.244 4.244 0 00-.875-1.381 4.075 4.075 0 00-1.354-.93 4.235 4.235 0 00-1.722-.342c-.693 0-1.331.137-1.914.411a4.204 4.204 0 00-1.504 1.189c-.41.51-.734 1.135-.971 1.873-.228.738-.342 1.577-.342 2.516 0 .884.105 1.677.315 2.379.209.701.506 1.294.888 1.777.392.483.857.852 1.395 1.107a4.115 4.115 0 001.791.383c.711 0 1.349-.127 1.914-.383a4.135 4.135 0 001.449-1.052c.401-.447.707-.971.916-1.573a5.587 5.587 0 00.328-1.927v-2.338zm6.536 1.763c.009.857.123 1.627.342 2.311.219.684.533 1.262.943 1.736.41.474.907.839 1.491 1.094.592.246 1.257.369 1.996.369 1.576 0 3.067-.551 4.47-1.654v1.723c-1.339.957-2.962 1.435-4.867 1.435-.939 0-1.791-.164-2.556-.492a5.334 5.334 0 01-1.956-1.422c-.537-.629-.952-1.399-1.244-2.31-.291-.912-.437-1.951-.437-3.118 0-1.048.159-2.019.478-2.912.319-.893.761-1.663 1.326-2.31a6.009 6.009 0 012.01-1.532 5.788 5.788 0 012.543-.56c.903 0 1.7.159 2.393.478.693.31 1.271.757 1.736 1.34.474.584.834 1.295 1.08 2.133.246.839.369 1.777.369 2.816v.875h-10.117zm8.313-1.531c-.028-1.458-.374-2.588-1.039-3.39-.666-.803-1.591-1.204-2.776-1.204-.592 0-1.144.105-1.654.315-.501.21-.943.515-1.326.916a4.886 4.886 0 00-.957 1.449 7.341 7.341 0 00-.52 1.914h8.272zm9.612 1.326l4.593 6.891h-2.105l-2.844-4.635a37.585 37.585 0 00-.342-.533 28.358 28.358 0 01-.342-.588h-.054a4.366 4.366 0 01-.219.369 41.76 41.76 0 00-.342.561L479.683 212h-2.065l4.731-6.85-4.58-7.15h2.037l2.912 4.908c.146.246.273.47.383.67l.273.479h.055c.118-.174.228-.347.328-.52.1-.182.205-.364.314-.547l3.09-4.99h1.969l-4.73 7.109zM509.324 212l-2.953-5.619a11.179 11.179 0 00-.847-1.395 4.193 4.193 0 00-.848-.888 2.642 2.642 0 00-.943-.479c-.328-.1-.698-.15-1.108-.15h-2.16V212h-1.818v-19.605h5.646c.738 0 1.449.109 2.133.328a5.666 5.666 0 011.846.97c.537.429.966.967 1.285 1.614.328.647.492 1.399.492 2.255 0 .693-.105 1.331-.314 1.915a4.929 4.929 0 01-.903 1.558c-.383.447-.852.83-1.408 1.149a6.765 6.765 0 01-1.859.697v.055c.264.109.506.25.724.423.219.174.429.383.629.629.21.246.415.529.615.848.201.319.411.684.629 1.094l3.295 6.07h-2.133zm-8.859-17.938v7.752h3.254a5.42 5.42 0 001.805-.287 3.923 3.923 0 001.394-.82c.392-.355.693-.784.903-1.285.218-.501.328-1.067.328-1.695 0-1.14-.369-2.033-1.108-2.68-.729-.656-1.786-.985-3.172-.985h-3.404zM523.12 212v-2.379h-.055c-.948 1.805-2.42 2.707-4.416 2.707-3.327 0-4.99-2.032-4.99-6.098V198h1.75v7.902c0 1.677.296 2.917.889 3.719.601.802 1.517 1.203 2.748 1.203.601 0 1.148-.114 1.64-.342.502-.237.93-.565 1.285-.984a4.6 4.6 0 00.848-1.531 6.103 6.103 0 00.301-1.969V198h1.75v14h-1.75zm15.149 0v-8.066c0-3.163-1.149-4.745-3.445-4.745a3.9 3.9 0 00-1.696.37 4.05 4.05 0 00-1.353.998c-.374.428-.67.938-.889 1.531a5.57 5.57 0 00-.314 1.9V212h-1.75v-14h1.75v2.434h.054c1.039-1.842 2.603-2.762 4.69-2.762 1.531 0 2.698.497 3.5 1.49.802.994 1.203 2.429 1.203 4.307V212h-1.75zm14.862 0v-8.066c0-3.163-1.149-4.745-3.446-4.745a3.9 3.9 0 00-1.695.37 4.04 4.04 0 00-1.353.998c-.374.428-.67.938-.889 1.531a5.57 5.57 0 00-.314 1.9V212h-1.75v-14h1.75v2.434h.054c1.039-1.842 2.602-2.762 4.69-2.762 1.531 0 2.698.497 3.5 1.49.802.994 1.203 2.429 1.203 4.307V212h-1.75zm6.248-6.686c.01.857.123 1.627.342 2.311.219.684.533 1.262.944 1.736.41.474.906.839 1.49 1.094.592.246 1.258.369 1.996.369 1.577 0 3.067-.551 4.471-1.654v1.723c-1.34.957-2.963 1.435-4.868 1.435-.938 0-1.791-.164-2.556-.492a5.322 5.322 0 01-1.955-1.422c-.538-.629-.953-1.399-1.244-2.31-.292-.912-.438-1.951-.438-3.118 0-1.048.16-2.019.479-2.912.319-.893.761-1.663 1.326-2.31a5.995 5.995 0 012.009-1.532 5.788 5.788 0 012.543-.56c.903 0 1.7.159 2.393.478a4.57 4.57 0 011.736 1.34c.474.584.834 1.295 1.08 2.133.247.839.37 1.777.37 2.816v.875h-10.118zm8.313-1.531c-.027-1.458-.374-2.588-1.039-3.39-.666-.803-1.591-1.204-2.776-1.204-.592 0-1.143.105-1.654.315-.501.21-.943.515-1.326.916a4.886 4.886 0 00-.957 1.449 7.38 7.38 0 00-.52 1.914h8.272zm11.622-3.992c-.411-.301-.939-.451-1.586-.451-.465 0-.875.091-1.231.273-.355.173-.67.41-.943.711a4.561 4.561 0 00-.684 1.053 7.906 7.906 0 00-.451 1.23c-.109.429-.191.862-.246 1.299-.046.438-.068.852-.068 1.244V212h-1.737v-14h1.737v2.994h.054c.164-.51.369-.966.615-1.367.256-.41.547-.752.875-1.025a3.589 3.589 0 011.067-.643 3.495 3.495 0 011.23-.219c.283 0 .534.018.752.055.228.036.433.091.616.164v1.832z" fill="#555"/>
</svg>
